<svg height="464pt" viewBox="0 0 464.01286 464" width="464pt" xmlns="http://www.w3.org/2000/svg"><path d="m448.011719 176.007812h-432c-8.808594.0625-15.933594 7.1875-16.0000002 16 .0273437 8.824219 7.1757812 15.972657 16.0000002 16h432c8.808593-.066406 15.9375-7.191406 16-16-.023438-8.828124-7.171875-15.976562-16-16zm0 0" fill="#ffcd00"/><path d="m256.011719 176.007812v-160c-.0625-8.8125-7.191407-15.9374995-16-15.9999995-8.824219.0234375-15.972657 7.1718755-16 15.9999995v160zm0 0" fill="#ed1c24"/><path d="m224.011719 208.007812h-208l9.730469 43.765626c13.011718 58.566406 64.957031 100.234374 124.949218 100.234374h162.640625c59.992188 0 111.9375-41.667968 124.953125-100.234374l9.726563-43.765626zm0 0" fill="#57a4ff"/><path d="m174.652344 352.007812h-24c-59.976563-.015624-111.894532-41.6875-124.878906-100.242187l-9.761719-43.757813h24l9.761719 43.757813c12.984374 58.554687 64.902343 100.226563 124.878906 100.242187zm0 0" fill="#2488ff"/><path d="m445.132812 403.925781-51.039062 10.5625c-6 1.277344-12.082031 2.398438-18.082031 3.519531v-82.402343c-10.085938 5.648437-20.894531 9.902343-32.125 12.640625h.125v74.878906c-76.976563 10.910156-155.132813 10.53125-232-1.117188v-75.921874h.554687c-11.496094-3.5625-22.429687-8.734376-32.472656-15.359376h-.082031v85.761719c-3.359375-.640625-6.71875-1.28125-10.078125-2l-51.039063-10.5625c-1.054687-.21875-2.125-.328125-3.203125-.320312-8.035156-.027344-14.78125 6.039062-15.6093748 14.03125-.8242192 7.996093 4.5390628 15.3125 12.4101568 16.929687l57.441406 11.921875c106.925781 22.078125 217.234375 22.078125 324.160156 0l57.4375-11.921875c8.460938-1.765625 13.890625-10.058594 12.121094-18.519531-1.765625-8.460937-10.058594-13.886719-18.519532-12.121094zm0 0" fill="#57565c"/><path d="m224.011719 16.007812h-48c-13.332031.050782-26.605469 1.769532-39.511719 5.117188l87.511719 154.882812zm0 0" fill="#57a4ff"/><path d="m136.5 21.125c-35.800781 9.140625-67.328125 30.398438-89.222656 60.160156l176.734375 94.722656zm0 0" fill="#2488ff"/><g fill="#006df0"><path d="m47.277344 81.285156c-20.308594 27.40625-31.269532 60.613282-31.265625 94.722656h208zm0 0"/><path d="m176.011719 16.007812h24c-13.332031.058594-26.609375 1.777344-39.519531 5.117188-6.886719 1.753906-13.648438 3.972656-20.238282 6.640625l-3.761718-6.640625c12.910156-3.339844 26.1875-5.058594 39.519531-5.117188zm0 0"/><path d="m140.253906 27.765625c-27.492187 11.125-51.363281 29.648437-68.960937 53.519531-2.238281 3.042969-4.398438 6.242188-6.398438 9.441406l-17.601562-9.441406c21.90625-29.738281 53.417969-50.992187 89.199219-60.160156zm0 0"/></g><path d="m64.894531 90.726562c-16.292969 25.457032-24.925781 55.058594-24.882812 85.28125h-24c-.015625-34.113281 10.953125-67.328124 31.28125-94.722656zm0 0" fill="#005ece"/></svg>