<svg id="Capa_1" enable-background="new 0 0 499.815 499.815" height="512" viewBox="0 0 499.815 499.815" width="512" xmlns="http://www.w3.org/2000/svg"><g><g><circle cx="228.328" cy="286.572" fill="#bdf4e3" r="209.88"/><path d="m228.328 76.692c-4.476 0-8.914.157-13.32.433 95.801 6.438 171.518 86.174 171.518 183.606 0 101.642-82.397 184.039-184.039 184.039-97.433 0-177.168-75.717-183.606-171.518-.276 4.406-.433 8.845-.433 13.321 0 115.913 93.967 209.88 209.88 209.88s209.88-93.967 209.88-209.88c0-115.914-93.966-209.881-209.88-209.881z" fill="#b1b7e3"/><g><path d="m228.328 445.268c-87.506 0-158.696-71.19-158.696-158.696 0-87.505 71.19-158.695 158.696-158.695 87.505 0 158.695 71.19 158.695 158.695.001 87.506-71.19 158.696-158.695 158.696zm0-305.391c-80.889 0-146.696 65.807-146.696 146.695s65.808 146.696 146.696 146.696 146.695-65.808 146.695-146.696-65.807-146.695-146.695-146.695z" fill="#90e0c5"/></g><path d="m106.364 164.608h243.929v243.929h-243.929z" fill="#fef2a8" transform="matrix(.707 -.707 .707 .707 -135.762 245.387)"/><path d="m97.625 87.609v59.059c0 4.951-3.534 8.964-7.893 8.964-4.359 0-7.894-4.013-7.894-8.964v-59.059c0-7.281-5.197-13.183-11.608-13.183-6.411 0-11.608 5.902-11.608 13.183v59.059c0 4.951-3.534 8.964-7.893 8.964-4.359 0-7.894-4.013-7.894-8.964v-59.059c0-7.281-5.197-13.183-11.608-13.183h-2.322c-6.411 0-11.608 5.902-11.608 13.183v75.405c0 21.334 12.116 40.554 29.382 45.977l.566 211.817c0 14.635 10.546 26.964 23.43 26.686 12.489-.269 22.54-11.851 22.54-26.098v-212.404c17.266-5.423 29.948-24.643 29.948-45.977v-75.406c0-7.281-5.59-13.176-12.001-13.176l-1.929-.007c-6.411.001-11.608 5.903-11.608 13.183z" fill="#8bb6ef"/><path d="m414.357 80.738v250.408h-46.68c-34.519-110.801-1.675-238.796 36.88-256.239 4.537-2.053 9.8 1.108 9.8 5.831z" fill="#8bb6ef"/><path d="m95.192 328.904h-49.736c-5.743 0-10.399 4.656-10.399 10.399v125.244c0 19.478 15.79 35.267 35.267 35.267 19.478 0 35.267-15.79 35.267-35.267v-125.244c0-5.744-4.656-10.399-10.399-10.399z" fill="#ef8bbd"/><path d="m414.524 328.897h-49.736c-5.743 0-10.399 4.656-10.399 10.399v125.245c0 19.478 15.79 35.267 35.267 35.267 19.478 0 35.267-15.79 35.267-35.267v-125.245c.001-5.743-4.655-10.399-10.399-10.399z" fill="#ef8bbd"/><path d="m283.279 263.767c-.927-15.111-13.598-26.957-28.887-26.702-12.118.202-22.334 7.951-26.264 18.69-4.286-10.602-14.755-18.005-26.873-17.803-15.017.251-27.115 12.087-27.941 26.849-4.558 29.41 55.216 71.282 55.216 71.282s59.868-43.756 54.749-72.316z" fill="#ffe266"/><g><path d="m195.745 387.93c-2.326 0-4.662-.807-6.556-2.452-6.077-5.281-11.496-11.055-16.737-16.639-2.429-2.587-4.939-5.263-7.428-7.789-3.876-3.934-3.828-10.266.106-14.142 3.935-3.874 10.266-3.828 14.142.107 2.658 2.698 5.253 5.463 7.763 8.137 5.124 5.46 9.964 10.616 15.273 15.229 4.169 3.622 4.611 9.939.988 14.107-1.975 2.277-4.756 3.442-7.551 3.442z" fill="#fff"/></g><g><path d="m143.492 335.672c-2.559 0-5.117-.976-7.07-2.928l-5.17-5.169c-3.905-3.905-3.906-10.236-.002-14.142 3.905-3.905 10.235-3.907 14.143-.002l5.17 5.169c3.905 3.905 3.906 10.236.002 14.142-1.954 1.954-4.514 2.93-7.073 2.93z" fill="#fff"/></g></g><path d="m150.434 5.434 6.093 17.133c.261.734.777 1.315 1.429 1.609l15.222 6.858c2.151.969 2.151 4.395 0 5.364l-15.222 6.858c-.652.294-1.168.875-1.429 1.609l-6.093 17.133c-.861 2.421-3.905 2.421-4.766 0l-6.093-17.133c-.261-.734-.777-1.315-1.429-1.609l-15.222-6.858c-2.151-.969-2.151-4.395 0-5.364l15.222-6.858c.652-.294 1.168-.875 1.429-1.609l6.093-17.133c.861-2.421 3.905-2.421 4.766 0z" fill="#f7c4db"/><path d="m458.16 1.815 6.093 17.133c.261.734.777 1.315 1.429 1.609l15.222 6.858c2.151.969 2.151 4.395 0 5.364l-15.222 6.858c-.652.294-1.168.875-1.429 1.609l-6.093 17.134c-.861 2.421-3.905 2.421-4.766 0l-6.093-17.133c-.261-.734-.777-1.315-1.429-1.609l-15.222-6.858c-2.151-.969-2.151-4.395 0-5.364l15.222-6.858c.652-.294 1.168-.875 1.429-1.609l6.093-17.133c.861-2.421 3.905-2.421 4.766-.001z" fill="#f7c4db"/><g fill="#ef8bbd"><circle cx="78.843" cy="28.698" r="7.737"/><ellipse cx="345.778" cy="49.782" rx="17.937" ry="17.937" transform="matrix(.23 -.973 .973 .23 217.884 374.873)"/></g></g></svg>