<svg height="512" viewBox="0 0 512 512" width="512" xmlns="http://www.w3.org/2000/svg"><g id="Flat"><path d="m128 193.137-40 206.863-44.86814 22.43407a34.60985 34.60985 0 0 0 -19.13186 30.95601 34.60987 34.60987 0 0 0 34.60987 34.60992h.00005a34.60985 34.60985 0 0 0 30.956-19.13186l22.43408-44.86814 206.863-40-86.863-128z" fill="#3ea7ff"/><path d="m318.85986 384-206.85986 40-22.42993 44.87a34.59442 34.59442 0 0 1 -52.67993 11.45007l51.10986-80.32007 144-144z" fill="#2b7cd4"/><path d="m241.13713 80h-.00013a113.137 113.137 0 0 0 -113.137 113.137v.00016a113.137 113.137 0 0 0 33.137 79.99992l77.726 77.72592a113.137 113.137 0 0 0 79.99987 33.137h.00016a113.137 113.137 0 0 0 113.13697-113.137v-.00016a113.137 113.137 0 0 0 -33.137-79.99984l-77.7259-77.7259a113.137 113.137 0 0 0 -79.99997-33.1371z" fill="#104f91"/><path d="m267.97853 158.97316 20.02147 25.02684 20.02147-25.02684a88 88 0 0 0 0-109.94632l-20.02147-25.02684-20.02147 25.02684a88 88 0 0 0 0 109.94632z" fill="#42c25e"/><path d="m280 80h16v104h-16z" fill="#2dac4d"/><path d="m249.73026 181.83788 30.26974 2.16212-5.20644-36.44508a88 88 0 0 0 -87.11556-75.55492h-19.678v22.06151a88 88 0 0 0 81.73026 87.77637z" fill="#7ab555"/><path d="m235.23 95.231h16v104h-16z" fill="#5a8a41" transform="matrix(.707 -.707 .707 .707 -32.867 215.113)"/><path d="m355.80519 281.19618-31.854-3.53933 3.53933 31.854a88 88 0 0 0 77.74379 77.74379l31.854 3.53933-3.53931-31.85397a88 88 0 0 0 -77.74381-77.74382z" fill="#7ab555"/><path d="m352.721 262.426h16v104h-16z" fill="#5a8a41" transform="matrix(.707 -.707 .707 .707 -116.68 347.161)"/><path d="m352.54087 252.12491-22.93279 19.87509 29.45207 22.089a88 88 0 0 0 115.0254-8.1746l13.91445-13.9144-15.59984-15.59984a88 88 0 0 0 -119.85929-4.27525z" fill="#42c25e"/><path d="m329.608 264h102.392v16h-102.392z" fill="#2dac4d"/><path d="m56 400 56 56 8-24 32-8-64-64-8 32z" fill="#f2e368"/><path d="m402.39258 182.51672a48.00065 48.00065 0 1 0 -87.98242-37.53552 55.99808 55.99808 0 1 0 18.03344 103.2533 47.99638 47.99638 0 1 0 69.949-65.71778z" fill="#c7161f"/><path d="m402.39014 182.52a47.72971 47.72971 0 0 0 5.26977-16.75 63.91844 63.91844 0 0 0 -31.28979-13.22 39.942 39.942 0 0 0 -32.37012-16.55c-1.24 0-2.47.07007-3.68994.17993-1.43018-.10986-2.88013-.17993-4.31006-.17993a55.849 55.849 0 0 0 -19.37988 3.45 45.85451 45.85451 0 0 0 -2.21021 5.53 57.29984 57.29984 0 0 0 -7.36987-.9 55.99748 55.99748 0 1 0 58.65996 95.4 31.97509 31.97509 0 0 0 17.14014-53.87 40.07485 40.07485 0 0 0 1.15986-9.61 39.65837 39.65837 0 0 0 -.37012-5.37 48.19 48.19 0 0 1 19.10012 12.25c-.10988-.12-.22-.24-.33986-.36zm-58.39014-30.52a24.03189 24.03189 0 0 1 24 24c0 .34-.01.66992-.02 1.01a31.8935 31.8935 0 0 0 -6.06006-.95 23.97991 23.97991 0 0 0 -40.5498 7.95 24.01449 24.01449 0 0 1 22.62986-32.01zm-8 80a39.98023 39.98023 0 0 1 -30.87012-65.41 39.96735 39.96735 0 0 0 23.23 46.2301 32.02255 32.02255 0 0 0 10.39012 19.0798c-.90991.0601-1.83008.1001-2.75.1001zm0-40a8 8 0 1 1 8 8 8.01066 8.01066 0 0 1 -8-8zm24 32a15.98054 15.98054 0 0 1 -13.89014-8.1001 24.03026 24.03026 0 0 0 21.79-21.78991 15.985 15.985 0 0 1 -7.89986 29.89001z" fill="#b50912"/><path d="m272 208a48.00258 48.00258 0 0 0 -70.52686-42.38733 47.99807 47.99807 0 1 0 -56.37841 76.57933 48.00664 48.00664 0 0 0 89.09716 12.71313 48.00981 48.00981 0 0 0 37.80811-46.90513z" fill="#eb352f"/><path d="m168.1001 221.89a15.98506 15.98506 0 1 1 21.79-21.79 24.03038 24.03038 0 0 0 -21.79 21.79zm23.8999 10.11a8 8 0 1 1 8-8 8.01074 8.01074 0 0 1 -8 8zm16 16a24.02416 24.02416 0 0 1 -8.01-1.37 23.98012 23.98012 0 0 0 7.95-40.55 31.89376 31.89376 0 0 0 -.95-6.05994c.34009-.01.66992-.02 1.01-.02a24 24 0 0 1 0 48zm23.45-56.38a64.1473 64.1473 0 0 0 -13.28-31.27 47.81718 47.81718 0 0 0 -16.52978 5.17l-.06006.03c-.04.02-.07007.03992-.11011.05994-.01 0-.01.01-.02.01a48.42524 48.42524 0 0 1 11.90991 18.75 39.43539 39.43539 0 0 0 -5.35996-.36994 40.06642 40.06642 0 0 0 -9.60986 1.15991 31.97419 31.97419 0 0 0 -53.26026 14.44009 72.19954 72.19954 0 0 0 -14.55981 30.45007 48.34862 48.34862 0 0 0 14.5 12.12988 56.17787 56.17787 0 0 1 3.71-17.36987 32.11157 32.11157 0 0 0 22.39986 14.82992 39.99728 39.99728 0 1 0 60.27-48.02z" fill="#c7161f"/><path d="m376 304a48.00258 48.00258 0 0 0 -70.52686-42.38733 47.99807 47.99807 0 1 0 -56.37841 76.57933 48.00664 48.00664 0 0 0 89.09716 12.71313 48.00981 48.00981 0 0 0 37.80811-46.90513z" fill="#eb352f"/><path d="m272.1001 317.89a15.98506 15.98506 0 1 1 21.79-21.79 24.03038 24.03038 0 0 0 -21.79 21.79zm23.8999 10.11a8 8 0 1 1 8-8 8.01074 8.01074 0 0 1 -8 8zm16 16a24.02416 24.02416 0 0 1 -8.01-1.37 23.98012 23.98012 0 0 0 7.95-40.55 31.89376 31.89376 0 0 0 -.95-6.05994c.34009-.01.66992-.02 1.01-.02a24 24 0 0 1 0 48zm23.45-56.38a64.1473 64.1473 0 0 0 -13.28-31.27 47.81718 47.81718 0 0 0 -16.52978 5.17l-.06006.03c-.04.02-.07007.03992-.11011.05994-.01 0-.01.01-.02.01a48.42524 48.42524 0 0 1 11.90991 18.75 39.43539 39.43539 0 0 0 -5.35996-.36994 40.06642 40.06642 0 0 0 -9.60986 1.15991 31.97419 31.97419 0 0 0 -53.26026 14.44009 72.19954 72.19954 0 0 0 -14.55981 30.45007 48.34862 48.34862 0 0 0 14.5 12.12988 56.17787 56.17787 0 0 1 3.71-17.36987 32.11157 32.11157 0 0 0 22.39986 14.82992 39.99728 39.99728 0 1 0 60.27-48.02z" fill="#c7161f"/></g></svg>