<svg id="Capa_1" enable-background="new 0 0 497.534 497.534" height="512" viewBox="0 0 497.534 497.534" width="512" xmlns="http://www.w3.org/2000/svg"><g><g><path d="m223.491 76.086h-26.302c-2.48 0-4.825 1.128-6.372 3.065l-11.22 14.044c-2.061 2.58-2.363 6.148-.765 9.038l12.106 21.893c1.436 2.597 4.17 4.209 7.138 4.209h24.529c2.968 0 5.702-1.612 7.138-4.209l12.106-21.893c1.598-2.89 1.296-6.458-.765-9.038l-11.22-14.044c-1.548-1.937-3.893-3.065-6.373-3.065z" fill="#b2e7f1"/><path d="m210.34 246.485c-9.17 0-16.603-7.433-16.603-16.603v-91.605c0-9.17 7.434-16.603 16.603-16.603 9.17 0 16.603 7.434 16.603 16.603v91.605c0 9.169-7.433 16.603-16.603 16.603z" fill="#ffe266"/><path d="m308.325 282.249h-163.25c-14.977 0-27.118-12.141-27.118-27.118v-3.288c0-29.659 24.044-53.703 53.703-53.703h110.08c29.659 0 53.703 24.044 53.703 53.703v3.288c0 14.977-12.141 27.118-27.118 27.118z" fill="#fef2a8"/><path d="m287.044 272.725v-205.81c0-18.881 15.306-34.188 34.188-34.188h4.145c37.392 0 67.703 30.312 67.703 67.704v138.779c0 37.392-30.312 67.704-67.703 67.704h-4.145c-18.881-.001-34.188-15.307-34.188-34.189z" fill="#8bb6ef"/><path d="m325.377 32.727c-2.801.002-6.473-.091-9.19.373 20.446 2.698 36.229 20.183 36.229 41.366v85.558c0 23.052-18.688 41.74-41.74 41.74h-2.555c-11.641 0-21.077-9.437-21.077-21.077v92.038c0 18.881 15.306 34.188 34.188 34.188h4.145c37.392 0 67.703-30.312 67.703-67.704v-138.778c.001-37.392-30.311-67.704-67.703-67.704z" fill="#8388ef"/><path d="m323.031 387.703h-192.662c-22.512 0-40.762-18.25-40.762-40.762v-69.213c0-22.512 18.25-40.762 40.762-40.762h192.662c22.512 0 40.762 18.25 40.762 40.762v69.213c0 22.512-18.249 40.762-40.762 40.762z" fill="#8bb6ef"/><path d="m323.031 236.966h-94.823c13.367 0 24.203 10.836 24.203 24.203v41.097c0 13.367-10.836 24.203-24.203 24.203h-114.397c-13.367 0-24.203-10.836-24.203-24.203v44.675c0 22.512 18.25 40.762 40.762 40.762h192.662c22.512 0 40.762-18.25 40.762-40.762v-69.213c-.001-22.513-18.25-40.762-40.763-40.762z" fill="#8388ef"/><path d="m474.747 497.534-104.306-69.866c-56.826 15.076-180.429 31.271-193.778 29.8-36.143-3.982-148.606-65.7-148.606-65.7-19.657-10.6-18.996-31.011-13.137-43.206s18.164-26.64 38.929-19.448c0 0 119.546 53.363 134.428 53.895 14.883.532 83.539-23.422 105.522-33.48 12.458-5.7 66.208-35.919 34.921-46.755-4.969-1.721-52.565 3.317-52.565 3.317-33.16 4.463-52.846-1.035-56.068-24.115-3.59-25.715 20.772-33.751 44.389-38.057 24.085-4.391 82.537-14.458 123.489-14.956 40.952-.499 64.446 16.189 76.807 42.509 9.398 20.013 6.373 38.15 6.373 38.15l21.548 16.575.447 171.304z" fill="#b07676"/><path d="m492.695 326.196-21.548-16.575s3.026-18.137-6.373-38.15c-12.361-26.32-35.855-43.008-76.807-42.509-8.069.099-16.821.572-25.852 1.297 28.375 2.883 60.228 24.732 71.892 48.149s-1.76 34.452-.785 49.401c.503 7.714 10.743 10.474 9.027 31.423l.214 60.886c.171 16.687-11.477 22.245-19.82 16.297l-35.396-25.834c-24.598-15.805-68.982-6.199-97.76-1.034-53.855 9.667-121.271 17.701-130.452 16.736-32.372-3.4-133.07-56.391-133.07-56.391-7.311-3.78-11.473-9.02-13.473-14.603-3.079 12.024-.804 27.651 15.565 36.478 0 0 112.463 61.718 148.606 65.7 13.348 1.471 136.952-14.724 193.777-29.8l104.306 69.867 18.395-.034z" fill="#a45775"/><g><path d="m168.932 287.832h-39.347c-5.523 0-10-4.477-10-10s4.477-10 10-10h39.347c5.523 0 10 4.477 10 10s-4.476 10-10 10z" fill="#fff"/></g></g><path d="m94.023 2.447 8.214 23.098c.352.989 1.048 1.773 1.927 2.168l20.521 9.246c2.899 1.306 2.899 5.925 0 7.232l-20.521 9.246c-.879.396-1.575 1.18-1.927 2.168l-8.214 23.098c-1.16 3.263-5.265 3.263-6.425 0l-8.214-23.098c-.352-.989-1.048-1.773-1.927-2.168l-20.521-9.246c-2.899-1.306-2.899-5.925 0-7.232l20.521-9.246c.879-.396 1.575-1.18 1.927-2.168l8.214-23.098c1.16-3.263 5.264-3.263 6.425 0z" fill="#b2e7f1"/><path d="m33.516 157.465 6.093 17.133c.261.734.777 1.315 1.429 1.609l15.222 6.858c2.151.969 2.151 4.395 0 5.364l-15.222 6.858c-.652.294-1.168.875-1.429 1.609l-6.093 17.133c-.861 2.421-3.905 2.421-4.766 0l-6.093-17.133c-.261-.734-.777-1.315-1.429-1.609l-15.222-6.858c-2.151-.969-2.151-4.395 0-5.364l15.222-6.858c.652-.294 1.168-.875 1.429-1.609l6.093-17.133c.861-2.421 3.905-2.421 4.766 0z" fill="#b2e7f1"/><g fill="#8bb6ef"><ellipse cx="106.859" cy="139.211" rx="17.937" ry="17.937" transform="matrix(.23 -.973 .973 .23 -53.179 211.227)"/><circle cx="236.477" cy="31.579" r="7.737"/></g></g></svg>